<svg id="Layer_1" data-name="Layer 1" xmlns="http://www.w3.org/2000/svg" viewBox="0 0 806.45 578.33"><defs><style>.cls-1{fill:#231f20;stroke:#231f20;stroke-miterlimit:10;}.cls-2{font-size:200px;font-family:FrenchScriptMT, French Script MT;}.cls-3{letter-spacing:-0.02em;}</style></defs><path fill="#fff" class="cls-1" d="M284.74,823.13C284.74,652,369,543.94,369,543.94H200.46S284.74,652,284.74,823.13Z" transform="translate(-175.33 -244.8)"/><path class="cls-1" d="M262.55,246.63S202,304.15,276.63,378.21s-36.11,156.67-36.11,156.67,161-78.34,79-165.24C246,291.82,262.55,246.63,262.55,246.63Z" transform="translate(-175.33 -244.8)"/><path fill="#fff" class="cls-1" d="M323.14,286.41s-44.06,38.55,5.51,80.17c80.54,67.61-42.23,160.34-42.23,160.34s168.12-93.39,67.93-158.51C305.39,336.59,323.14,286.41,323.14,286.41Z" transform="translate(-175.33 -244.8)"/><path fill="#fff" class="cls-1" d="M230.73,530C265,501.22,334.22,438.9,251.54,368.41c-37.33-31.82-68.55-59.36-36.72-119.33,0,0-80.79,61.19-9.79,148.71C262.63,468.8,230.73,530,230.73,530Z" transform="translate(-175.33 -244.8)"/><text class="cls-2" transform="translate(220.51 210.02)">Riley<tspan class="cls-3" x="0" y="240">P</tspan><tspan x="103.42" y="240">eterson</tspan></text></svg>