<svg id="Layer_2" data-name="Layer 2" xmlns="http://www.w3.org/2000/svg" viewBox="0 0 857.96 540.63"><polygon points="91.37 540.63 182.74 213.7 0 213.7 91.37 540.63"/><polygon points="0 197.01 53.8 62.1 73.07 126.34 115.9 0 128.75 86.73 150.7 56.75 182.74 197.01 0 197.01"/><path d="M307.58,363.5v105h-4.95v-105Zm-2.7,0h18.3a46.08,46.08,0,0,1,18.15,3.37,29.28,29.28,0,0,1,12.67,10q4.72,6.6,4.73,16.35T354,409.47a29,29,0,0,1-12.67,10,46.07,46.07,0,0,1-18.15,3.38h-18.3v-4.35h18.3a41.38,41.38,0,0,0,15.9-2.85,23.85,23.85,0,0,0,10.8-8.48q3.9-5.62,3.9-14t-3.9-14a23.44,23.44,0,0,0-10.8-8.4,42.58,42.58,0,0,0-15.9-2.77h-18.3Zm20.25,56.25,34.5,48.75h-6l-33.9-48.75Z" transform="translate(-94.31 -241.41)"/><path d="M381.23,363.5v105h-4.8v-105Z" transform="translate(-94.31 -241.41)"/><path d="M411.53,363.5V463.85h45v4.65h-49.8v-105Z" transform="translate(-94.31 -241.41)"/><path d="M477.08,363.5v105h-5v-105Zm-2.7,0h51.45v4.65H474.38Zm0,44.7h48.45v4.65H474.38Zm0,55.65h51.45v4.65H474.38Z" transform="translate(-94.31 -241.41)"/><path d="M614,363.5,578.47,427V468.5h-4.8V427.1l-34.5-63.6h5.55l31.2,58.65,32.55-58.65Z" transform="translate(-94.31 -241.41)"/><path d="M307.58,543.5v105h-4.95v-105Zm-2.1,0h18.75a38.86,38.86,0,0,1,17.25,3.67,28.35,28.35,0,0,1,11.77,10.5q4.28,6.84,4.28,16.58a30.71,30.71,0,0,1-4.28,16.5,28.07,28.07,0,0,1-11.77,10.58A38.72,38.72,0,0,1,324.23,605H305.48v-4.5h18.75q12.6,0,20.47-6.83t7.88-19.42q0-12.6-7.88-19.35t-20.47-6.75H305.48Z" transform="translate(-94.31 -241.41)"/><path d="M382.58,543.5v105h-4.95v-105Zm-2.7,0h51.45v4.65H379.88Zm0,44.7h48.45v4.65H379.88Zm0,55.65h51.45v4.65H379.88Z" transform="translate(-94.31 -241.41)"/><path d="M445.43,543.5h61.05v4.65H478.43V648.5h-4.95V548.15H445.43Z" transform="translate(-94.31 -241.41)"/><path d="M527,543.5v105h-4.95v-105Zm-2.7,0h51.45v4.65H524.33Zm0,44.7h48.45v4.65H524.33Zm0,55.65h51.45v4.65H524.33Z" transform="translate(-94.31 -241.41)"/><path d="M605.32,543.5v105h-5v-105Zm-2.7,0h18.3a45.9,45.9,0,0,1,18.15,3.38,29.21,29.21,0,0,1,12.68,10q4.72,6.6,4.72,16.35,0,9.6-4.72,16.27a29,29,0,0,1-12.68,10.06,46.08,46.08,0,0,1-18.15,3.37h-18.3v-4.35h18.3a41.38,41.38,0,0,0,15.9-2.85,23.85,23.85,0,0,0,10.8-8.48q3.9-5.62,3.9-14t-3.9-14a23.36,23.36,0,0,0-10.8-8.39,42.37,42.37,0,0,0-15.9-2.78h-18.3Zm20.25,56.25,34.5,48.75h-6l-33.9-48.75Z" transform="translate(-94.31 -241.41)"/><path d="M678.15,631.92a26.66,26.66,0,0,0,9.07,9.53q5.7,3.6,14.4,3.6,11.4,0,17.7-6.38a22,22,0,0,0,6.3-16.12q0-7.95-3.6-13a27.9,27.9,0,0,0-9.15-8.25,80.93,80.93,0,0,0-11.55-5.4q-5-2-9.9-4.43a48,48,0,0,1-9.07-5.84,25.26,25.26,0,0,1-6.53-8,26.41,26.41,0,0,1,1-23.93,22.69,22.69,0,0,1,9.37-8.47,30.11,30.11,0,0,1,13.65-3,29.37,29.37,0,0,1,14.1,3.15,31,31,0,0,1,9.6,7.8,35.16,35.16,0,0,1,5.55,9.3l-4.5,2.4a30.81,30.81,0,0,0-4.57-8.25,24.83,24.83,0,0,0-8-6.75,25.43,25.43,0,0,0-12.3-2.7q-9.75,0-15.52,5.1T678.37,566a19.19,19.19,0,0,0,3.38,11.47,29.31,29.31,0,0,0,9.3,8.18,83.8,83.8,0,0,0,13.87,6.3,97.57,97.57,0,0,1,9.08,4.2,39,39,0,0,1,8.32,5.85,26.68,26.68,0,0,1,6.08,8.4,27.29,27.29,0,0,1,2.32,11.7,28.87,28.87,0,0,1-2.1,11.1A25.32,25.32,0,0,1,722.7,642a27.42,27.42,0,0,1-9.23,5.78,32.86,32.86,0,0,1-12,2.1q-9.45,0-16.05-3.9a31,31,0,0,1-10.65-10.35,46.43,46.43,0,0,1-5.85-14l4.05-2.4A53,53,0,0,0,678.15,631.92Z" transform="translate(-94.31 -241.41)"/><path d="M748.35,574.47a51.15,51.15,0,0,1,10.72-17,49.47,49.47,0,0,1,16.28-11.25,54,54,0,0,1,41,0,50.18,50.18,0,0,1,27.08,28.27,62.36,62.36,0,0,1,0,43,50,50,0,0,1-27.08,28.35,54,54,0,0,1-41,0,49.47,49.47,0,0,1-16.28-11.25,50.91,50.91,0,0,1-10.72-17.1,62.2,62.2,0,0,1,0-43Zm7.2,46.65a44.47,44.47,0,0,0,40.27,23.78,45.23,45.23,0,0,0,24.08-6.37,44.37,44.37,0,0,0,16.27-17.41A52.73,52.73,0,0,0,842,596q0-14.25-5.85-25.2a44.56,44.56,0,0,0-16.27-17.33,45.9,45.9,0,0,0-64.35,17.33q-5.92,11-5.93,25.2A52.19,52.19,0,0,0,755.55,621.12Z" transform="translate(-94.31 -241.41)"/><path d="M952.27,543.5V651.65L872.32,553.7v94.8h-5V540.35l80,98.4V543.5Z" transform="translate(-94.31 -241.41)"/></svg>