<svg id="Layer_2" data-name="Layer 2" xmlns="http://www.w3.org/2000/svg" viewBox="0 0 1000 1000"><defs><style>.cls-1{fill:#e8c457;}</style></defs><path class="cls-1" d="M472.08,600v400h2.05V600Zm0-492.86V492.86h2.05V107.14Z"/><path class="cls-1" d="M961.27,140Q922.53,72.86,856.75,36.43T707.35,0h-364Q259.76,0,194,36.43T89.46,140Q50.72,207.19,50.72,300q0,91.42,38.74,159.29T194,563.57a282.55,282.55,0,0,0,62.45,25.31L0,1000H129.11L368.62,600H474.13v400H576.6V600H707.35q83.61,0,149.4-36.43T961.27,459.29Q1000,391.46,1000,300,1000,207.15,961.27,140ZM474.13,492.86H343.38q-55.33,0-97.76-22.86t-66.4-65.71q-24-42.87-24-104.29t24-104.29q24-42.86,66.4-65.71t97.76-22.86H474.13Zm369.09-54.29q-52.29,47.15-135.87,47.14H576.6V114.29H707.35q83.61,0,135.87,46.42T895.48,300Q895.48,391.42,843.22,438.57Z"/><path class="cls-1" d="M576.6,600v400h2V600Zm0-485.71V485.71h2V114.29Z"/></svg>